<svg version="1.1" xmlns="http://www.w3.org/2000/svg" xmlns:xlink="http://www.w3.org/1999/xlink" width="92.2353515625" height="77"><defs/><g><text fill="#eeeeee" stroke="none" font-family="Arial" font-size="24px" font-style="normal" font-weight="normal" text-decoration="none" x="0" y="0">UNREGISTERED</text><text fill="#eeeeee" stroke="none" font-family="Arial" font-size="24px" font-style="normal" font-weight="normal" text-decoration="none" x="0" y="30">UNREGISTERED</text><text fill="#eeeeee" stroke="none" font-family="Arial" font-size="24px" font-style="normal" font-weight="normal" text-decoration="none" x="0" y="60">UNREGISTERED</text><g transform="translate(-246,-222) scale(1,1)"><rect fill="#C0C0C0" stroke="none" x="263" y="239" width="72.2353515625" height="57" opacity="0.2"/></g><g transform="translate(-246,-222) scale(1,1)"><rect fill="#ffffff" stroke="none" x="256" y="232" width="72.2353515625" height="57"/></g><g transform="translate(-246,-222) scale(1,1)"><path fill="none" stroke="#000000" d="M 256 232 L 328.2353515625 232 L 328.2353515625 289 L 256 289 L 256 232 Z Z" stroke-miterlimit="10"/></g><g transform="translate(-246,-222) scale(1,1)"><path fill="none" stroke="#000000" d="M 256 257 L 328.2353515625 257" stroke-miterlimit="10"/></g><g transform="translate(-246,-222) scale(1,1)"><path fill="none" stroke="#000000" d="M 256 280 L 328.2353515625 280" stroke-miterlimit="10"/></g><g transform="translate(-246,-222) scale(1,1)"><g><path fill="none" stroke="none"/><text fill="#000000" stroke="none" font-family="Arial" font-size="13px" font-style="normal" font-weight="bold" text-decoration="none" x="274.779052734375" y="249.5">Carro</text></g></g><g transform="translate(-246,-222) scale(1,1)"><g><path fill="none" stroke="none"/><text fill="#000000" stroke="none" font-family="Arial" font-size="13px" font-style="normal" font-weight="normal" text-decoration="none" x="261" y="272.5">+Cor</text></g></g></g></svg>